# xmcd CD database file
#
# Track frame offsets:
#	150
#	18387
#	31519
#	45074
#	58368
#	75249
#	86227
#	100914
#	117388
#	130807
#	142299
#	152890
#	166928
#	179753
#	192102
#	207834
#	222257
#	237029
#	252466
#	269131
#	282976
#	295924
#	311909
#	328582
#	343184
#
# Disc length: 4725 seconds
#
# Revision: 0
# Processed by: cddbd v1.5.2PL0 Copyright (c) Steve Scherf et al.
# Submitted via: CDex 1.51
#
DISCID=7d127319
DTITLE=Sarah Vaughan - You're Mine You
DYEAR=1962
DGENRE=Jazz
TTITLE0=You're Mine You
TTITLE1=The Best Is Yet To Come
TTITLE2=Wichcraft
TTITLE3=So Long
TTITLE4=Second Time Around
TTITLE5=I Could Write A Book
TTITLE6=	Maria
TTITLE7=Baubles, Bangles And Beads
TTITLE8=In Other Words
TTITLE9=Moonglow
TTITLE10=Invitation
TTITLE11=On Green Dolphin Street
TTITLE12=One Mint Julep
TTITLE13=Mama, He Treats Your Daughter Mean
TTITLE14=Gone With The Wind
TTITLE15=Day By Day
TTITLE16=Please Be Kind
TTITLE17=Live For Love
TTITLE18=I'll Close My Eyes
TTITLE19=Misty
TTITLE20=The Midnight Sun Will Never Set
TTITLE21=That's All
TTITLE22=I'm Lost
TTITLE23=love Me
TTITLE24=The Thrill Is Gone
EXTD=YEAR: 1962
EXTT0=
EXTT1=
EXTT2=
EXTT3=
EXTT4=
EXTT5=
EXTT6=
EXTT7=
EXTT8=
EXTT9=
EXTT10=
EXTT11=
EXTT12=
EXTT13=
EXTT14=
EXTT15=
EXTT16=
EXTT17=
EXTT18=
EXTT19=
EXTT20=
EXTT21=
EXTT22=
EXTT23=
EXTT24=
PLAYORDER=
